<svg xmlns="http://www.w3.org/2000/svg" version="1.1" xmlns:xlink="http://www.w3.org/1999/xlink" xmlns:svgjs="http://svgjs.com/svgjs" width="1920" height="1080" preserveAspectRatio="none" viewBox="0 0 1920 1080"><g mask="url(&quot;#SvgjsMask1031&quot;)" fill="none"><rect width="1920" height="1080" x="0" y="0" fill="#0e2a47"></rect><path d="M 0,145 C 128,223 384,539 640,535 C 896,531 1024,168.4 1280,125 C 1536,81.6 1792,279.4 1920,318L1920 1080L0 1080z" fill="#184a7e"></path><path d="M 0,836 C 76.8,784 230.4,558.8 384,576 C 537.6,593.2 614.4,889 768,922 C 921.6,955 998.4,737.8 1152,741 C 1305.6,744.2 1382.4,975 1536,938 C 1689.6,901 1843.2,632.4 1920,556L1920 1080L0 1080z" fill="#2264ab"></path></g><defs><mask id="SvgjsMask1031"><rect width="1920" height="1080" fill="#ffffff"></rect></mask></defs></svg>